<mxfile host="app.diagrams.net" agent="Mozilla/5.0 (X11; Ubuntu; Linux x86_64; rv:135.0) Gecko/20100101 Firefox/135.0" version="26.0.13">
  <diagram name="Page-1" id="5s0hHc6_vI2FGKbH8OjT">
    <mxGraphModel dx="1434" dy="1869" grid="1" gridSize="10" guides="1" tooltips="1" connect="1" arrows="1" fold="1" page="1" pageScale="1" pageWidth="850" pageHeight="1100" math="0" shadow="0">
      <root>
        <mxCell id="0" />
        <mxCell id="1" parent="0" />
        <mxCell id="ujitMRf5nh2YtzrHybt1-43" value="" style="endArrow=none;html=1;rounded=0;entryX=1;entryY=0.5;entryDx=0;entryDy=0;exitX=0.5;exitY=0;exitDx=0;exitDy=0;" edge="1" parent="1" source="ujitMRf5nh2YtzrHybt1-130">
          <mxGeometry width="50" height="50" relative="1" as="geometry">
            <mxPoint x="350" y="140" as="sourcePoint" />
            <mxPoint x="160" y="-20" as="targetPoint" />
            <Array as="points">
              <mxPoint x="360" y="-20" />
            </Array>
          </mxGeometry>
        </mxCell>
        <mxCell id="ujitMRf5nh2YtzrHybt1-85" value="1..*" style="text;html=1;align=center;verticalAlign=middle;whiteSpace=wrap;rounded=0;" vertex="1" parent="1">
          <mxGeometry x="180" y="-42" width="60" height="30" as="geometry" />
        </mxCell>
        <mxCell id="ujitMRf5nh2YtzrHybt1-87" value="*" style="text;html=1;align=center;verticalAlign=middle;whiteSpace=wrap;rounded=0;fontSize=17;" vertex="1" parent="1">
          <mxGeometry x="110" y="-150" width="60" height="30" as="geometry" />
        </mxCell>
        <mxCell id="ujitMRf5nh2YtzrHybt1-88" value="1" style="text;html=1;align=center;verticalAlign=middle;whiteSpace=wrap;rounded=0;" vertex="1" parent="1">
          <mxGeometry x="900" y="40" width="20" height="30" as="geometry" />
        </mxCell>
        <mxCell id="ujitMRf5nh2YtzrHybt1-100" value="1" style="text;html=1;align=center;verticalAlign=middle;whiteSpace=wrap;rounded=0;" vertex="1" parent="1">
          <mxGeometry x="940" y="90" width="20" height="30" as="geometry" />
        </mxCell>
        <mxCell id="ujitMRf5nh2YtzrHybt1-111" value="Artist" style="swimlane;fontStyle=0;childLayout=stackLayout;horizontal=1;startSize=30;horizontalStack=0;resizeParent=1;resizeParentMax=0;resizeLast=0;collapsible=1;marginBottom=0;whiteSpace=wrap;html=1;" vertex="1" parent="1">
          <mxGeometry x="40" y="-50" width="140" height="90" as="geometry">
            <mxRectangle x="30" y="30" width="70" height="30" as="alternateBounds" />
          </mxGeometry>
        </mxCell>
        <mxCell id="ujitMRf5nh2YtzrHybt1-112" value="Birth Date PK" style="text;strokeColor=none;fillColor=none;align=left;verticalAlign=middle;spacingLeft=4;spacingRight=4;overflow=hidden;points=[[0,0.5],[1,0.5]];portConstraint=eastwest;rotatable=0;whiteSpace=wrap;html=1;" vertex="1" parent="ujitMRf5nh2YtzrHybt1-111">
          <mxGeometry y="30" width="140" height="30" as="geometry" />
        </mxCell>
        <mxCell id="ujitMRf5nh2YtzrHybt1-113" value="&lt;div&gt;Name PK&lt;/div&gt;" style="text;strokeColor=none;fillColor=none;align=left;verticalAlign=middle;spacingLeft=4;spacingRight=4;overflow=hidden;points=[[0,0.5],[1,0.5]];portConstraint=eastwest;rotatable=0;whiteSpace=wrap;html=1;" vertex="1" parent="ujitMRf5nh2YtzrHybt1-111">
          <mxGeometry y="60" width="140" height="30" as="geometry" />
        </mxCell>
        <mxCell id="ujitMRf5nh2YtzrHybt1-115" value="Painting" style="swimlane;fontStyle=0;childLayout=stackLayout;horizontal=1;startSize=30;horizontalStack=0;resizeParent=1;resizeParentMax=0;resizeLast=0;collapsible=1;marginBottom=0;whiteSpace=wrap;html=1;" vertex="1" parent="1">
          <mxGeometry x="10" y="170" width="140" height="90" as="geometry" />
        </mxCell>
        <mxCell id="ujitMRf5nh2YtzrHybt1-116" value="Width" style="text;strokeColor=none;fillColor=none;align=left;verticalAlign=middle;spacingLeft=4;spacingRight=4;overflow=hidden;points=[[0,0.5],[1,0.5]];portConstraint=eastwest;rotatable=0;whiteSpace=wrap;html=1;" vertex="1" parent="ujitMRf5nh2YtzrHybt1-115">
          <mxGeometry y="30" width="140" height="30" as="geometry" />
        </mxCell>
        <mxCell id="ujitMRf5nh2YtzrHybt1-117" value="Length" style="text;strokeColor=none;fillColor=none;align=left;verticalAlign=middle;spacingLeft=4;spacingRight=4;overflow=hidden;points=[[0,0.5],[1,0.5]];portConstraint=eastwest;rotatable=0;whiteSpace=wrap;html=1;" vertex="1" parent="ujitMRf5nh2YtzrHybt1-115">
          <mxGeometry y="60" width="140" height="30" as="geometry" />
        </mxCell>
        <mxCell id="ujitMRf5nh2YtzrHybt1-119" value="Sculture" style="swimlane;fontStyle=0;childLayout=stackLayout;horizontal=1;startSize=29;horizontalStack=0;resizeParent=1;resizeParentMax=0;resizeLast=0;collapsible=1;marginBottom=0;whiteSpace=wrap;html=1;" vertex="1" parent="1">
          <mxGeometry x="10" y="360" width="140" height="119" as="geometry" />
        </mxCell>
        <mxCell id="ujitMRf5nh2YtzrHybt1-120" value="Width" style="text;strokeColor=none;fillColor=none;align=left;verticalAlign=middle;spacingLeft=4;spacingRight=4;overflow=hidden;points=[[0,0.5],[1,0.5]];portConstraint=eastwest;rotatable=0;whiteSpace=wrap;html=1;" vertex="1" parent="ujitMRf5nh2YtzrHybt1-119">
          <mxGeometry y="29" width="140" height="30" as="geometry" />
        </mxCell>
        <mxCell id="ujitMRf5nh2YtzrHybt1-121" value="Length" style="text;strokeColor=none;fillColor=none;align=left;verticalAlign=middle;spacingLeft=4;spacingRight=4;overflow=hidden;points=[[0,0.5],[1,0.5]];portConstraint=eastwest;rotatable=0;whiteSpace=wrap;html=1;" vertex="1" parent="ujitMRf5nh2YtzrHybt1-119">
          <mxGeometry y="59" width="140" height="30" as="geometry" />
        </mxCell>
        <mxCell id="ujitMRf5nh2YtzrHybt1-125" value="Height" style="text;strokeColor=none;fillColor=none;align=left;verticalAlign=middle;spacingLeft=4;spacingRight=4;overflow=hidden;points=[[0,0.5],[1,0.5]];portConstraint=eastwest;rotatable=0;whiteSpace=wrap;html=1;" vertex="1" parent="ujitMRf5nh2YtzrHybt1-119">
          <mxGeometry y="89" width="140" height="30" as="geometry" />
        </mxCell>
        <mxCell id="ujitMRf5nh2YtzrHybt1-127" value="" style="triangle;whiteSpace=wrap;html=1;" vertex="1" parent="1">
          <mxGeometry x="270" y="285" width="20" height="30" as="geometry" />
        </mxCell>
        <mxCell id="ujitMRf5nh2YtzrHybt1-128" value="" style="endArrow=none;html=1;rounded=0;exitX=0;exitY=0.5;exitDx=0;exitDy=0;entryX=1;entryY=0.5;entryDx=0;entryDy=0;" edge="1" parent="1" source="ujitMRf5nh2YtzrHybt1-127" target="ujitMRf5nh2YtzrHybt1-115">
          <mxGeometry width="50" height="50" relative="1" as="geometry">
            <mxPoint x="520" y="260" as="sourcePoint" />
            <mxPoint x="570" y="210" as="targetPoint" />
            <Array as="points">
              <mxPoint x="230" y="300" />
              <mxPoint x="230" y="215" />
            </Array>
          </mxGeometry>
        </mxCell>
        <mxCell id="ujitMRf5nh2YtzrHybt1-129" value="" style="endArrow=none;html=1;rounded=0;entryX=1;entryY=0.5;entryDx=0;entryDy=0;" edge="1" parent="1" target="ujitMRf5nh2YtzrHybt1-121">
          <mxGeometry width="50" height="50" relative="1" as="geometry">
            <mxPoint x="270" y="300" as="sourcePoint" />
            <mxPoint x="160" y="225" as="targetPoint" />
            <Array as="points">
              <mxPoint x="230" y="300" />
              <mxPoint x="230" y="434" />
            </Array>
          </mxGeometry>
        </mxCell>
        <mxCell id="ujitMRf5nh2YtzrHybt1-130" value="Piece of art" style="swimlane;fontStyle=0;childLayout=stackLayout;horizontal=1;startSize=29;horizontalStack=0;resizeParent=1;resizeParentMax=0;resizeLast=0;collapsible=1;marginBottom=0;whiteSpace=wrap;html=1;" vertex="1" parent="1">
          <mxGeometry x="290" y="255.5" width="140" height="89" as="geometry" />
        </mxCell>
        <mxCell id="ujitMRf5nh2YtzrHybt1-131" value="Unique id or name PK" style="text;strokeColor=none;fillColor=none;align=left;verticalAlign=middle;spacingLeft=4;spacingRight=4;overflow=hidden;points=[[0,0.5],[1,0.5]];portConstraint=eastwest;rotatable=0;whiteSpace=wrap;html=1;" vertex="1" parent="ujitMRf5nh2YtzrHybt1-130">
          <mxGeometry y="29" width="140" height="30" as="geometry" />
        </mxCell>
        <mxCell id="ujitMRf5nh2YtzrHybt1-132" value="Creation date" style="text;strokeColor=none;fillColor=none;align=left;verticalAlign=middle;spacingLeft=4;spacingRight=4;overflow=hidden;points=[[0,0.5],[1,0.5]];portConstraint=eastwest;rotatable=0;whiteSpace=wrap;html=1;" vertex="1" parent="ujitMRf5nh2YtzrHybt1-130">
          <mxGeometry y="59" width="140" height="30" as="geometry" />
        </mxCell>
        <mxCell id="ujitMRf5nh2YtzrHybt1-135" value="{Complete, disjoint}" style="text;html=1;align=center;verticalAlign=middle;whiteSpace=wrap;rounded=0;" vertex="1" parent="1">
          <mxGeometry x="160" y="285" width="70" height="30" as="geometry" />
        </mxCell>
        <mxCell id="ujitMRf5nh2YtzrHybt1-136" value="Move" style="swimlane;fontStyle=0;childLayout=stackLayout;horizontal=1;startSize=29;horizontalStack=0;resizeParent=1;resizeParentMax=0;resizeLast=0;collapsible=1;marginBottom=0;whiteSpace=wrap;html=1;" vertex="1" parent="1">
          <mxGeometry x="290" y="420" width="140" height="119" as="geometry" />
        </mxCell>
        <mxCell id="ujitMRf5nh2YtzrHybt1-137" value="Unique id or name PK" style="text;strokeColor=none;fillColor=none;align=left;verticalAlign=middle;spacingLeft=4;spacingRight=4;overflow=hidden;points=[[0,0.5],[1,0.5]];portConstraint=eastwest;rotatable=0;whiteSpace=wrap;html=1;" vertex="1" parent="ujitMRf5nh2YtzrHybt1-136">
          <mxGeometry y="29" width="140" height="30" as="geometry" />
        </mxCell>
        <mxCell id="ujitMRf5nh2YtzrHybt1-138" value="Day PK" style="text;strokeColor=none;fillColor=none;align=left;verticalAlign=middle;spacingLeft=4;spacingRight=4;overflow=hidden;points=[[0,0.5],[1,0.5]];portConstraint=eastwest;rotatable=0;whiteSpace=wrap;html=1;" vertex="1" parent="ujitMRf5nh2YtzrHybt1-136">
          <mxGeometry y="59" width="140" height="30" as="geometry" />
        </mxCell>
        <mxCell id="ujitMRf5nh2YtzrHybt1-139" value="Year PK" style="text;strokeColor=none;fillColor=none;align=left;verticalAlign=middle;spacingLeft=4;spacingRight=4;overflow=hidden;points=[[0,0.5],[1,0.5]];portConstraint=eastwest;rotatable=0;whiteSpace=wrap;html=1;" vertex="1" parent="ujitMRf5nh2YtzrHybt1-136">
          <mxGeometry y="89" width="140" height="30" as="geometry" />
        </mxCell>
        <mxCell id="ujitMRf5nh2YtzrHybt1-141" value="" style="rhombus;whiteSpace=wrap;html=1;fillColor=#000000;" vertex="1" parent="1">
          <mxGeometry x="355" y="344.5" width="10" height="10" as="geometry" />
        </mxCell>
        <mxCell id="ujitMRf5nh2YtzrHybt1-142" value="" style="endArrow=none;html=1;rounded=0;entryX=0.5;entryY=1;entryDx=0;entryDy=0;exitX=0.5;exitY=0;exitDx=0;exitDy=0;" edge="1" parent="1" source="ujitMRf5nh2YtzrHybt1-136" target="ujitMRf5nh2YtzrHybt1-141">
          <mxGeometry width="50" height="50" relative="1" as="geometry">
            <mxPoint x="520" y="470" as="sourcePoint" />
            <mxPoint x="570" y="420" as="targetPoint" />
          </mxGeometry>
        </mxCell>
        <mxCell id="ujitMRf5nh2YtzrHybt1-143" value="Exhibition" style="swimlane;fontStyle=0;childLayout=stackLayout;horizontal=1;startSize=29;horizontalStack=0;resizeParent=1;resizeParentMax=0;resizeLast=0;collapsible=1;marginBottom=0;whiteSpace=wrap;html=1;" vertex="1" parent="1">
          <mxGeometry x="520" y="-9" width="140" height="179" as="geometry" />
        </mxCell>
        <mxCell id="ujitMRf5nh2YtzrHybt1-144" value="City PK" style="text;strokeColor=none;fillColor=none;align=left;verticalAlign=middle;spacingLeft=4;spacingRight=4;overflow=hidden;points=[[0,0.5],[1,0.5]];portConstraint=eastwest;rotatable=0;whiteSpace=wrap;html=1;" vertex="1" parent="ujitMRf5nh2YtzrHybt1-143">
          <mxGeometry y="29" width="140" height="30" as="geometry" />
        </mxCell>
        <mxCell id="ujitMRf5nh2YtzrHybt1-147" value="Number PK" style="text;strokeColor=none;fillColor=none;align=left;verticalAlign=middle;spacingLeft=4;spacingRight=4;overflow=hidden;points=[[0,0.5],[1,0.5]];portConstraint=eastwest;rotatable=0;whiteSpace=wrap;html=1;" vertex="1" parent="ujitMRf5nh2YtzrHybt1-143">
          <mxGeometry y="59" width="140" height="30" as="geometry" />
        </mxCell>
        <mxCell id="ujitMRf5nh2YtzrHybt1-148" value="Street PK" style="text;strokeColor=none;fillColor=none;align=left;verticalAlign=middle;spacingLeft=4;spacingRight=4;overflow=hidden;points=[[0,0.5],[1,0.5]];portConstraint=eastwest;rotatable=0;whiteSpace=wrap;html=1;" vertex="1" parent="ujitMRf5nh2YtzrHybt1-143">
          <mxGeometry y="89" width="140" height="30" as="geometry" />
        </mxCell>
        <mxCell id="ujitMRf5nh2YtzrHybt1-145" value="Begin Date PK" style="text;strokeColor=none;fillColor=none;align=left;verticalAlign=middle;spacingLeft=4;spacingRight=4;overflow=hidden;points=[[0,0.5],[1,0.5]];portConstraint=eastwest;rotatable=0;whiteSpace=wrap;html=1;" vertex="1" parent="ujitMRf5nh2YtzrHybt1-143">
          <mxGeometry y="119" width="140" height="30" as="geometry" />
        </mxCell>
        <mxCell id="ujitMRf5nh2YtzrHybt1-146" value="End Date PK" style="text;strokeColor=none;fillColor=none;align=left;verticalAlign=middle;spacingLeft=4;spacingRight=4;overflow=hidden;points=[[0,0.5],[1,0.5]];portConstraint=eastwest;rotatable=0;whiteSpace=wrap;html=1;" vertex="1" parent="ujitMRf5nh2YtzrHybt1-143">
          <mxGeometry y="149" width="140" height="30" as="geometry" />
        </mxCell>
        <mxCell id="ujitMRf5nh2YtzrHybt1-149" value="" style="rhombus;whiteSpace=wrap;html=1;fillColor=#000000;" vertex="1" parent="1">
          <mxGeometry x="960" y="90" width="10" height="10" as="geometry" />
        </mxCell>
        <mxCell id="ujitMRf5nh2YtzrHybt1-150" value="" style="endArrow=none;html=1;rounded=0;entryX=0;entryY=0.5;entryDx=0;entryDy=0;exitX=1;exitY=0.5;exitDx=0;exitDy=0;" edge="1" parent="1" source="ujitMRf5nh2YtzrHybt1-148" target="ujitMRf5nh2YtzrHybt1-149">
          <mxGeometry width="50" height="50" relative="1" as="geometry">
            <mxPoint x="690" y="136.5" as="sourcePoint" />
            <mxPoint x="870" y="136.5" as="targetPoint" />
          </mxGeometry>
        </mxCell>
        <mxCell id="ujitMRf5nh2YtzrHybt1-151" value="&lt;div&gt;Collection&lt;/div&gt;" style="swimlane;fontStyle=0;childLayout=stackLayout;horizontal=1;startSize=30;horizontalStack=0;resizeParent=1;resizeParentMax=0;resizeLast=0;collapsible=1;marginBottom=0;whiteSpace=wrap;html=1;" vertex="1" parent="1">
          <mxGeometry x="810" y="270" width="140" height="60" as="geometry" />
        </mxCell>
        <mxCell id="ujitMRf5nh2YtzrHybt1-152" value="Name PK" style="text;strokeColor=none;fillColor=none;align=left;verticalAlign=middle;spacingLeft=4;spacingRight=4;overflow=hidden;points=[[0,0.5],[1,0.5]];portConstraint=eastwest;rotatable=0;whiteSpace=wrap;html=1;" vertex="1" parent="ujitMRf5nh2YtzrHybt1-151">
          <mxGeometry y="30" width="140" height="30" as="geometry" />
        </mxCell>
        <mxCell id="ujitMRf5nh2YtzrHybt1-155" value="Museum" style="swimlane;fontStyle=0;childLayout=stackLayout;horizontal=1;startSize=30;horizontalStack=0;resizeParent=1;resizeParentMax=0;resizeLast=0;collapsible=1;marginBottom=0;whiteSpace=wrap;html=1;" vertex="1" parent="1">
          <mxGeometry x="1240" y="240" width="140" height="90" as="geometry" />
        </mxCell>
        <mxCell id="ujitMRf5nh2YtzrHybt1-156" value="Name" style="text;strokeColor=none;fillColor=none;align=left;verticalAlign=middle;spacingLeft=4;spacingRight=4;overflow=hidden;points=[[0,0.5],[1,0.5]];portConstraint=eastwest;rotatable=0;whiteSpace=wrap;html=1;" vertex="1" parent="ujitMRf5nh2YtzrHybt1-155">
          <mxGeometry y="30" width="140" height="30" as="geometry" />
        </mxCell>
        <mxCell id="ujitMRf5nh2YtzrHybt1-157" value="Opening Hours" style="text;strokeColor=none;fillColor=none;align=left;verticalAlign=middle;spacingLeft=4;spacingRight=4;overflow=hidden;points=[[0,0.5],[1,0.5]];portConstraint=eastwest;rotatable=0;whiteSpace=wrap;html=1;" vertex="1" parent="ujitMRf5nh2YtzrHybt1-155">
          <mxGeometry y="60" width="140" height="30" as="geometry" />
        </mxCell>
        <mxCell id="ujitMRf5nh2YtzrHybt1-158" value="Storage" style="swimlane;fontStyle=0;childLayout=stackLayout;horizontal=1;startSize=30;horizontalStack=0;resizeParent=1;resizeParentMax=0;resizeLast=0;collapsible=1;marginBottom=0;whiteSpace=wrap;html=1;" vertex="1" parent="1">
          <mxGeometry x="1240" y="50" width="140" height="60" as="geometry" />
        </mxCell>
        <mxCell id="ujitMRf5nh2YtzrHybt1-159" value="Size" style="text;strokeColor=none;fillColor=none;align=left;verticalAlign=middle;spacingLeft=4;spacingRight=4;overflow=hidden;points=[[0,0.5],[1,0.5]];portConstraint=eastwest;rotatable=0;whiteSpace=wrap;html=1;" vertex="1" parent="ujitMRf5nh2YtzrHybt1-158">
          <mxGeometry y="30" width="140" height="30" as="geometry" />
        </mxCell>
        <mxCell id="ujitMRf5nh2YtzrHybt1-162" value="" style="triangle;whiteSpace=wrap;html=1;rotation=-180;" vertex="1" parent="1">
          <mxGeometry x="1090" y="50" width="20" height="30" as="geometry" />
        </mxCell>
        <mxCell id="ujitMRf5nh2YtzrHybt1-163" value="" style="endArrow=none;html=1;rounded=0;entryX=0;entryY=0.5;entryDx=0;entryDy=0;exitX=0;exitY=0.25;exitDx=0;exitDy=0;" edge="1" parent="1" source="ujitMRf5nh2YtzrHybt1-158" target="ujitMRf5nh2YtzrHybt1-162">
          <mxGeometry width="50" height="50" relative="1" as="geometry">
            <mxPoint x="790" y="260" as="sourcePoint" />
            <mxPoint x="840" y="210" as="targetPoint" />
          </mxGeometry>
        </mxCell>
        <mxCell id="ujitMRf5nh2YtzrHybt1-164" value="" style="endArrow=none;html=1;rounded=0;entryX=0;entryY=0.5;entryDx=0;entryDy=0;exitX=0;exitY=0.5;exitDx=0;exitDy=0;" edge="1" parent="1" source="ujitMRf5nh2YtzrHybt1-162" target="ujitMRf5nh2YtzrHybt1-156">
          <mxGeometry width="50" height="50" relative="1" as="geometry">
            <mxPoint x="790" y="260" as="sourcePoint" />
            <mxPoint x="840" y="210" as="targetPoint" />
            <Array as="points">
              <mxPoint x="1160" y="65" />
              <mxPoint x="1160" y="285" />
            </Array>
          </mxGeometry>
        </mxCell>
        <mxCell id="ujitMRf5nh2YtzrHybt1-165" value="{disjoint}" style="text;html=1;align=center;verticalAlign=middle;whiteSpace=wrap;rounded=0;" vertex="1" parent="1">
          <mxGeometry x="1110" y="40" width="70" height="30" as="geometry" />
        </mxCell>
        <mxCell id="ujitMRf5nh2YtzrHybt1-166" value="Location" style="swimlane;fontStyle=0;childLayout=stackLayout;horizontal=1;startSize=29;horizontalStack=0;resizeParent=1;resizeParentMax=0;resizeLast=0;collapsible=1;marginBottom=0;whiteSpace=wrap;html=1;" vertex="1" parent="1">
          <mxGeometry x="970" y="36.5" width="120" height="119" as="geometry" />
        </mxCell>
        <mxCell id="ujitMRf5nh2YtzrHybt1-167" value="City" style="text;strokeColor=none;fillColor=none;align=left;verticalAlign=middle;spacingLeft=4;spacingRight=4;overflow=hidden;points=[[0,0.5],[1,0.5]];portConstraint=eastwest;rotatable=0;whiteSpace=wrap;html=1;" vertex="1" parent="ujitMRf5nh2YtzrHybt1-166">
          <mxGeometry y="29" width="120" height="30" as="geometry" />
        </mxCell>
        <mxCell id="ujitMRf5nh2YtzrHybt1-168" value="Number" style="text;strokeColor=none;fillColor=none;align=left;verticalAlign=middle;spacingLeft=4;spacingRight=4;overflow=hidden;points=[[0,0.5],[1,0.5]];portConstraint=eastwest;rotatable=0;whiteSpace=wrap;html=1;" vertex="1" parent="ujitMRf5nh2YtzrHybt1-166">
          <mxGeometry y="59" width="120" height="30" as="geometry" />
        </mxCell>
        <mxCell id="ujitMRf5nh2YtzrHybt1-169" value="Street" style="text;strokeColor=none;fillColor=none;align=left;verticalAlign=middle;spacingLeft=4;spacingRight=4;overflow=hidden;points=[[0,0.5],[1,0.5]];portConstraint=eastwest;rotatable=0;whiteSpace=wrap;html=1;" vertex="1" parent="ujitMRf5nh2YtzrHybt1-166">
          <mxGeometry y="89" width="120" height="30" as="geometry" />
        </mxCell>
        <mxCell id="ujitMRf5nh2YtzrHybt1-172" value="" style="endArrow=none;html=1;rounded=0;exitX=0.5;exitY=0;exitDx=0;exitDy=0;entryX=0;entryY=0.5;entryDx=0;entryDy=0;" edge="1" parent="1" source="ujitMRf5nh2YtzrHybt1-111">
          <mxGeometry width="50" height="50" relative="1" as="geometry">
            <mxPoint x="110" y="-50" as="sourcePoint" />
            <mxPoint x="970" y="65" as="targetPoint" />
            <Array as="points">
              <mxPoint x="110" y="-125" />
              <mxPoint x="790" y="-125" />
              <mxPoint x="790" y="65" />
            </Array>
          </mxGeometry>
        </mxCell>
        <mxCell id="ujitMRf5nh2YtzrHybt1-174" value="" style="endArrow=none;html=1;rounded=0;exitX=1;exitY=0.5;exitDx=0;exitDy=0;entryX=0.533;entryY=1.017;entryDx=0;entryDy=0;entryPerimeter=0;" edge="1" parent="1" source="ujitMRf5nh2YtzrHybt1-136" target="ujitMRf5nh2YtzrHybt1-169">
          <mxGeometry width="50" height="50" relative="1" as="geometry">
            <mxPoint x="430" y="480" as="sourcePoint" />
            <mxPoint x="1034" y="155" as="targetPoint" />
            <Array as="points">
              <mxPoint x="1034" y="480" />
            </Array>
          </mxGeometry>
        </mxCell>
        <mxCell id="ujitMRf5nh2YtzrHybt1-175" value="" style="endArrow=none;html=1;rounded=0;exitX=1;exitY=0.5;exitDx=0;exitDy=0;entryX=0;entryY=0.5;entryDx=0;entryDy=0;" edge="1" parent="1" source="ujitMRf5nh2YtzrHybt1-130" target="ujitMRf5nh2YtzrHybt1-151">
          <mxGeometry width="50" height="50" relative="1" as="geometry">
            <mxPoint x="650" y="230" as="sourcePoint" />
            <mxPoint x="700" y="180" as="targetPoint" />
          </mxGeometry>
        </mxCell>
        <mxCell id="ujitMRf5nh2YtzrHybt1-176" value="" style="endArrow=none;html=1;rounded=0;exitX=1;exitY=0.5;exitDx=0;exitDy=0;entryX=-0.007;entryY=0;entryDx=0;entryDy=0;entryPerimeter=0;" edge="1" parent="1" target="ujitMRf5nh2YtzrHybt1-157">
          <mxGeometry width="50" height="50" relative="1" as="geometry">
            <mxPoint x="950" y="300" as="sourcePoint" />
            <mxPoint x="1235.94" y="300.9899999999998" as="targetPoint" />
          </mxGeometry>
        </mxCell>
        <mxCell id="ujitMRf5nh2YtzrHybt1-177" value="" style="endArrow=none;html=1;rounded=0;exitX=0.75;exitY=0;exitDx=0;exitDy=0;entryX=0;entryY=0.5;entryDx=0;entryDy=0;" edge="1" parent="1" source="ujitMRf5nh2YtzrHybt1-130" target="ujitMRf5nh2YtzrHybt1-148">
          <mxGeometry width="50" height="50" relative="1" as="geometry">
            <mxPoint x="650" y="230" as="sourcePoint" />
            <mxPoint x="700" y="180" as="targetPoint" />
            <Array as="points">
              <mxPoint x="395" y="95" />
            </Array>
          </mxGeometry>
        </mxCell>
        <mxCell id="ujitMRf5nh2YtzrHybt1-178" value="*" style="text;html=1;align=center;verticalAlign=middle;whiteSpace=wrap;rounded=0;fontSize=17;" vertex="1" parent="1">
          <mxGeometry x="320" y="230" width="60" height="30" as="geometry" />
        </mxCell>
        <mxCell id="ujitMRf5nh2YtzrHybt1-179" value="1..*" style="text;html=1;align=center;verticalAlign=middle;whiteSpace=wrap;rounded=0;" vertex="1" parent="1">
          <mxGeometry x="380" y="220" width="60" height="30" as="geometry" />
        </mxCell>
        <mxCell id="ujitMRf5nh2YtzrHybt1-180" value="*" style="text;html=1;align=center;verticalAlign=middle;whiteSpace=wrap;rounded=0;fontSize=17;" vertex="1" parent="1">
          <mxGeometry x="470" y="70" width="60" height="30" as="geometry" />
        </mxCell>
        <mxCell id="ujitMRf5nh2YtzrHybt1-181" value="1..*" style="text;html=1;align=center;verticalAlign=middle;whiteSpace=wrap;rounded=0;" vertex="1" parent="1">
          <mxGeometry x="425" y="270" width="60" height="30" as="geometry" />
        </mxCell>
        <mxCell id="ujitMRf5nh2YtzrHybt1-182" value="*" style="text;html=1;align=center;verticalAlign=middle;whiteSpace=wrap;rounded=0;fontSize=17;" vertex="1" parent="1">
          <mxGeometry x="760" y="280" width="60" height="30" as="geometry" />
        </mxCell>
        <mxCell id="ujitMRf5nh2YtzrHybt1-183" value="*" style="text;html=1;align=center;verticalAlign=middle;whiteSpace=wrap;rounded=0;fontSize=17;" vertex="1" parent="1">
          <mxGeometry x="340" y="400" width="60" height="30" as="geometry" />
        </mxCell>
        <mxCell id="ujitMRf5nh2YtzrHybt1-184" value="1" style="text;html=1;align=center;verticalAlign=middle;whiteSpace=wrap;rounded=0;" vertex="1" parent="1">
          <mxGeometry x="360" y="342.5" width="20" height="30" as="geometry" />
        </mxCell>
        <mxCell id="ujitMRf5nh2YtzrHybt1-185" value="*" style="text;html=1;align=center;verticalAlign=middle;whiteSpace=wrap;rounded=0;fontSize=17;" vertex="1" parent="1">
          <mxGeometry x="420" y="460" width="60" height="30" as="geometry" />
        </mxCell>
        <mxCell id="ujitMRf5nh2YtzrHybt1-186" value="1" style="text;html=1;align=center;verticalAlign=middle;whiteSpace=wrap;rounded=0;" vertex="1" parent="1">
          <mxGeometry x="1030" y="150" width="20" height="30" as="geometry" />
        </mxCell>
        <mxCell id="ujitMRf5nh2YtzrHybt1-187" value="*" style="text;html=1;align=center;verticalAlign=middle;whiteSpace=wrap;rounded=0;fontSize=17;" vertex="1" parent="1">
          <mxGeometry x="940" y="280" width="60" height="30" as="geometry" />
        </mxCell>
        <mxCell id="ujitMRf5nh2YtzrHybt1-188" value="0..1" style="text;html=1;align=center;verticalAlign=middle;whiteSpace=wrap;rounded=0;" vertex="1" parent="1">
          <mxGeometry x="1194" y="292" width="60" height="30" as="geometry" />
        </mxCell>
        <mxCell id="ujitMRf5nh2YtzrHybt1-189" value="*" style="text;html=1;align=center;verticalAlign=middle;whiteSpace=wrap;rounded=0;fontSize=17;" vertex="1" parent="1">
          <mxGeometry x="640" y="90" width="60" height="30" as="geometry" />
        </mxCell>
      </root>
    </mxGraphModel>
  </diagram>
</mxfile>
